<svg width="62" height="62" viewBox="0 0 62 62" fill="none" xmlns="http://www.w3.org/2000/svg">
<g clip-path="url(#clip0_729_3272)">
<path d="M49.2548 31C49.2548 41.1011 41.0781 49.2778 30.977 49.2778V31H49.2548ZM30.977 12.7222V31H12.6992C12.6992 20.8988 20.8758 12.7222 30.977 12.7222Z" fill="#FEFCFA"/>
<path d="M30.9766 12.7222V13.7244C40.5014 13.7244 48.2522 21.4733 48.2522 31H49.2543C49.2543 20.9061 41.0705 12.7222 30.9766 12.7222ZM30.9766 48.2756C21.4517 48.2756 13.7009 40.5267 13.7009 31H12.6988C12.6988 41.0939 20.8826 49.2778 30.9766 49.2778V48.2756ZM30.9766 0.15625C13.9425 0.15625 0.132812 13.9659 0.132812 31C0.132812 48.0341 13.9425 61.8437 30.9766 61.8437C48.0106 61.8437 61.8203 48.0341 61.8203 31C61.8203 13.9659 48.0106 0.15625 30.9766 0.15625ZM59.8146 31C59.8146 46.926 46.9044 59.838 30.9766 59.838C15.0487 59.838 2.13853 46.926 2.13853 31C2.13853 15.074 15.0505 2.16196 30.9766 2.16196C46.9026 2.16196 59.8146 15.074 59.8146 31Z" fill="#FEFCFA"/>
<path d="M17.7941 16.1206C18.7797 15.0896 19.3378 13.8984 18.3522 12.7612C17.8159 12.1441 16.9154 12.0091 16.1689 12.3132L16.0946 12.342L16.1182 12.2772C16.2287 11.9839 16.2994 11.0483 15.4967 10.4023C15.1054 10.0875 14.6144 9.9705 14.118 10.0209C13.1921 10.1144 12.4801 10.7424 10.5414 12.889C9.95623 13.5368 9.10468 14.5588 8.59375 15.2209L13.9187 20.2374C15.6834 18.2978 16.4027 17.5762 17.7941 16.1206ZM10.8458 14.8934C11.9184 13.5907 13.0581 12.4086 13.5744 11.9408C13.7375 11.7932 13.915 11.6457 14.1306 11.5881C14.4803 11.4927 14.8409 11.7392 14.9224 12.0955C15.0039 12.4536 14.7775 12.7936 14.5256 13.0743C13.9585 13.7095 11.8786 15.8705 11.8786 15.8705L10.8458 14.8934ZM12.9312 16.8583C12.9312 16.8583 14.9568 14.7315 15.6181 14.0514C15.8809 13.7815 16.0494 13.6177 16.2305 13.5296C16.4643 13.4162 16.7197 13.3928 16.948 13.544C17.1727 13.6933 17.2759 13.9506 17.2198 14.2061C17.1527 14.5102 16.9027 14.7999 16.6962 15.0212C16.4171 15.3181 14.0147 17.8713 14.0111 17.8749L12.9312 16.8583ZM31.5838 10.1378L33.2887 6.34486L33.3974 6.00839L33.3666 6.35925L33.546 11.4279C34.1439 11.4837 34.7617 11.5665 35.3705 11.6673L35.0933 4.16048C34.2417 4.06692 33.3938 4.00034 32.5459 3.96436L30.8663 8.1046L30.8066 8.41228L30.7468 8.1046L29.069 3.96436C28.2211 4.00034 27.3732 4.06692 26.5216 4.16048L26.2444 11.6673C26.8532 11.5665 27.471 11.4855 28.0689 11.4279L28.2483 6.35925L28.2175 6.00839L28.3262 6.34486L30.0311 10.1378H31.5838H31.5838ZM45.7431 17.9847C46.1616 18.4309 46.765 19.1506 47.1038 19.5879L53.3437 15.6546C53.032 15.2497 52.5356 14.6343 52.1642 14.2007L48.2126 16.7953L47.9427 17.0256L48.1438 16.7342L49.8885 13.2759L48.6547 12.0505L45.1706 13.7833L44.8771 13.983L45.1108 13.7149L47.7252 9.79236C47.265 9.40371 46.823 9.04744 46.2595 8.61561L42.2989 14.8071C42.8007 15.1903 43.462 15.7535 43.8842 16.1368L47.6129 14.2151L47.8521 14.0406L47.6763 14.2781L45.7431 17.9847Z" fill="#FEFCFA"/>
</g>
<defs>
<clipPath id="clip0_729_3272">
<rect width="61.6875" height="61.6875" fill="white" transform="translate(0.132812 0.15625)"/>
</clipPath>
</defs>
</svg>
